HIERARCHY
ROOT Hips
{
     OFFSET 23.93520 96.61120 76.00990
     CHANNELS 6 Xposition Yposition Zposition Zrotation Xrotation Yrotation
     JOINT Spine
     {
          OFFSET -0.00000 11.89050 -0.00000
          CHANNELS 3 Zrotation Xrotation Yrotation
          JOINT Spine1
          {
               OFFSET 0.00000 25.65740 0.12766
               CHANNELS 3 Zrotation Xrotation Yrotation
               JOINT HEad
               {
                    OFFSET 0.00000 8.73416 0.01134
                    CHANNELS 3 Zrotation Xrotation Yrotation
                    End Site
                    {
                         OFFSET -0.29000 12.77420 2.51395
                    }
               }
               JOINT LeftShoulder1
               {
                    OFFSET 8.99000 -0.36225 -0.22000
                    CHANNELS 3 Zrotation Xrotation Yrotation
                    JOINT LeftArm
                    {
                         OFFSET 10.28270 -0.00338 0.32212
                         CHANNELS 3 Zrotation Xrotation Yrotation
                         JOINT LeftForeArm
                         {
                              OFFSET 32.76690 0.09914 -1.42434
                              CHANNELS 3 Zrotation Xrotation Yrotation
                              JOINT LeftHand
                              {
                                   OFFSET 27.56430 0.08536 1.02216
                                   CHANNELS 3 Zrotation Xrotation Yrotation
                                   End Site
                                   {
                                        OFFSET 16.74430 -0.60000 1.50291
                                   }
                              }
                         }
                    }
               }
               JOINT RightShoulder
               {
                    OFFSET -8.99000 -0.36225 -0.22000
                    CHANNELS 3 Zrotation Xrotation Yrotation
                    JOINT RightArm
                    {
                         OFFSET -10.28270 -0.00338 0.32212
                         CHANNELS 3 Zrotation Xrotation Yrotation
                         JOINT RightForeArm
                         {
                              OFFSET -32.89710 0.09914 -1.42434
                              CHANNELS 3 Zrotation Xrotation Yrotation
                              JOINT RightHand
                              {
                                   OFFSET -27.49210 0.08536 1.02216
                                   CHANNELS 3 Zrotation Xrotation Yrotation
                                   End Site
                                   {
                                        OFFSET -16.63120 -0.60000 1.50291
                                   }
                              }
                         }
                    }
               }
          }
     }
     JOINT LeftUpLeg
     {
          OFFSET 8.94580 -8.66707 0.10165
          CHANNELS 3 Zrotation Xrotation Yrotation
          JOINT LeftLeg
          {
               OFFSET 0.00000 -44.42270 1.37270
               CHANNELS 3 Zrotation Xrotation Yrotation
               JOINT LeftFoot
               {
                    OFFSET -0.25355 -42.09240 -1.46059
                    CHANNELS 3 Zrotation Xrotation Yrotation
                    JOINT LeftToes
                    {
                         OFFSET -0.04000 -4.41509 8.49910
                         CHANNELS 3 Zrotation Xrotation Yrotation
                         End Site
                         {
                              OFFSET 0.08000 -0.04745 9.77979
                         }
                    }
               }
          }
     }
     JOINT RightUpLeg
     {
          OFFSET -8.94580 -8.66707 0.10165
          CHANNELS 3 Zrotation Xrotation Yrotation
          JOINT RightLeg
          {
               OFFSET -0.00000 -44.42270 1.37270
               CHANNELS 3 Zrotation Xrotation Yrotation
               JOINT RightFoot
               {
                    OFFSET 0.25355 -42.09240 -1.46059
                    CHANNELS 3 Zrotation Xrotation Yrotation
                    JOINT RightToes
                    {
                         OFFSET 0.04000 -4.41509 8.49910
                         CHANNELS 3 Zrotation Xrotation Yrotation
                         End Site
                         {
                              OFFSET -0.08000 -0.13745 9.77979
                         }
                    }
               }
          }
     }
}
MOTION
Frames: 20
Frame Time: 0.01667
26.74940 37.99950 -22.34830 -153.86301 -66.47920 153.27400 2.27483 12.89610 -0.26171 -0.83662 26.71480 1.45332 -5.19642 7.37428 2.34458 -0.00000 -0.00000 0.00000 -62.60280 -27.61080 -89.29290 -22.75360 32.37820 -74.28730 23.73080 5.62804 -16.61620 -2.44174 0.10738 -3.23217 59.97940 -11.24050 106.96900 2.11751 11.89400 29.56720 1.93653 9.99016 -0.40905 -20.80700 -28.19990 19.78230 151.64000 48.24040 139.25700 12.94220 46.48640 -6.57261 -1.94681 -15.06790 61.04550 -29.98900 -19.08580 -16.99270 -86.83530 77.72700 53.77750 14.14200 -28.44020 2.37958 -4.95819 30.21920 7.17052 
26.67810 39.23450 -22.64080 -152.96300 -67.97550 153.93800 2.71643 13.04980 -0.25046 0.25132 26.92210 1.20748 -7.36251 7.83696 2.20681 -0.00000 -0.00000 0.00000 -66.62680 -31.53340 -88.92630 -26.06600 34.23690 -73.60530 23.90260 5.31418 -17.94220 -6.13136 0.17579 -5.43326 60.17630 -9.87181 107.30000 1.31748 10.35150 30.16480 1.83055 9.99016 -0.24726 -19.29140 -28.84800 18.36850 151.92300 49.42830 142.14200 9.19284 43.39350 -4.45378 -1.52884 -15.13690 58.02740 -30.28340 -20.72250 -18.01060 -90.85290 78.45350 57.39680 12.90840 -27.63340 2.04879 -4.46252 28.42330 6.51951 
26.66370 40.10140 -22.79570 -152.16600 -69.08460 154.58099 3.15995 13.33970 -0.35217 1.15954 27.36120 0.87579 -9.55457 8.50878 1.64105 -0.00000 -0.00000 0.00000 -70.09340 -35.26610 -88.43110 -28.90800 35.53020 -72.81850 24.08730 5.05388 -18.97920 -10.09240 0.39460 -7.51065 60.83290 -8.45838 107.30800 0.53635 8.18114 30.69170 1.74772 9.98789 -0.21734 -18.02130 -29.51690 16.94570 151.95900 50.94960 148.34100 3.25660 38.46840 -1.57459 -1.30447 -14.78620 53.31470 -30.71590 -22.27180 -18.88420 -96.09030 79.15870 62.18620 10.14980 -26.45000 1.43663 -3.68037 25.02010 5.56375 
26.70900 40.58990 -22.82200 -151.43600 -69.74710 155.21100 3.56699 13.75400 -0.54517 1.89158 28.03620 0.45897 -11.83970 9.43539 0.91160 -0.00000 -0.00000 0.00000 -72.87830 -38.61880 -87.56520 -31.01900 36.28930 -72.14010 24.33380 4.83776 -19.72880 -14.16940 0.75028 -9.38757 62.09200 -7.16343 107.06100 -0.02963 6.19788 31.10230 1.73736 9.98562 -0.30703 -16.88910 -30.10180 15.42250 151.73100 52.79720 157.23300 -4.60030 32.22290 1.39498 -1.90012 -13.03870 46.78300 -31.21780 -23.65560 -19.52530 -102.77300 79.72350 68.42580 6.33307 -25.04340 0.70806 -2.80355 20.35800 4.57253 
26.79740 40.72330 -22.78970 -150.81400 -70.02510 155.73900 3.80272 14.23510 -0.75164 2.40784 28.86790 -0.00440 -14.17670 10.63240 0.26081 -0.00000 -0.00000 0.00000 -74.62570 -41.39510 -86.02930 -32.27630 36.43040 -71.68970 24.62250 4.67072 -20.19450 -17.89750 1.18758 -11.03590 63.56820 -6.13944 106.61000 -0.33104 4.85157 31.41150 1.80735 9.98411 -0.48670 -15.75510 -30.36560 13.76920 151.33701 54.88750 166.80499 -12.60550 26.28950 3.56640 -3.52327 -9.17019 39.78560 -31.70540 -24.89260 -19.85770 -110.61400 80.04890 75.91480 2.24443 -23.60990 0.04343 -1.97866 15.11400 3.69766 
26.91490 40.53710 -22.78500 -150.34500 -70.02100 156.07300 3.70489 14.73580 -0.87874 2.62991 29.77840 -0.43698 -16.39240 11.98360 -0.17384 -0.00000 -0.00000 0.00000 -74.92040 -43.39820 -83.64270 -32.71640 35.74780 -71.40110 24.87810 4.56826 -20.39330 -20.70560 1.60181 -12.35670 64.65360 -5.62109 105.95900 -0.35414 4.26294 31.62660 1.93552 9.98343 -0.70071 -14.65290 -30.11050 12.15170 150.91800 57.06570 174.69501 -18.64460 21.97180 4.69241 -5.46464 -4.14309 34.30610 -32.09040 -26.04690 -19.82020 -118.82500 80.10760 83.90010 -1.51424 -22.28370 -0.47022 -1.27268 10.00190 2.94796 
27.06370 40.06480 -22.83970 -149.90900 -69.84010 156.31599 3.25018 15.24240 -0.88344 2.51944 30.73450 -0.75399 -18.28390 13.19380 -0.37396 -0.00000 -0.00000 0.00000 -73.60720 -44.44090 -80.46730 -32.43610 34.06590 -71.12640 25.03550 4.54380 -20.34200 -22.31930 1.89365 -13.26390 64.94510 -5.79377 105.06800 -0.12324 4.38320 31.74470 2.11258 9.98435 -0.88878 -13.68560 -29.39490 10.71850 150.50999 59.22900 179.97600 -22.05420 19.10290 5.05371 -7.05415 0.36078 30.90260 -32.27090 -27.18930 -19.39300 -126.77800 79.94420 91.72810 -4.77108 -21.09770 -0.83924 -0.69019 5.45171 2.24454 
27.25280 39.34060 -22.93570 -149.31200 -69.57110 156.63699 2.55583 15.75590 -0.75795 2.12188 31.72860 -0.86919 -19.72760 13.90920 -0.39307 -0.00000 -0.00000 0.00000 -70.89060 -44.31600 -76.75890 -31.39140 31.35620 -70.84930 25.09580 4.59986 -20.03280 -22.91040 2.03851 -13.79150 64.42200 -6.65887 103.88400 0.26235 5.14793 31.75050 2.37771 9.98883 -1.01382 -12.85870 -28.39790 9.53673 150.03799 61.32330 -176.85600 -23.42910 16.90150 4.94354 -8.24313 3.80212 29.02460 -32.16190 -28.39710 -18.55800 -134.39301 79.60960 99.30280 -7.51223 -20.07240 -1.09349 -0.23034 1.72537 1.53487 
27.48360 38.39880 -23.05890 -148.46201 -69.27790 157.09200 1.75221 16.26880 -0.49957 1.53134 32.74180 -0.72165 -20.71770 13.96400 -0.29371 -0.00000 -0.00000 0.00000 -67.26720 -42.87500 -72.92800 -29.48240 27.75390 -70.60540 25.05870 4.73203 -19.48280 -22.88980 2.07784 -14.05230 63.30740 -8.05569 102.34600 0.62888 6.50059 31.61780 2.81708 9.99914 -1.08602 -12.11340 -27.27320 8.66120 149.38699 63.32550 -174.78101 -23.65310 14.82860 4.57451 -9.22856 6.52923 28.01050 -31.57020 -29.77030 -17.63890 -139.72400 78.73700 104.56000 -9.21508 -19.37780 -1.22072 0.03103 -0.44881 1.02911 
27.74670 37.26430 -23.19530 -147.39000 -69.02750 157.71500 0.93286 16.76360 -0.14351 0.86443 33.73260 -0.36058 -21.34510 13.43730 -0.11644 -0.00000 -0.00000 0.00000 -63.36030 -40.21390 -69.46400 -26.79920 23.53540 -70.28520 24.80290 4.93960 -18.80150 -22.61160 2.06059 -14.13740 61.81330 -9.76813 100.43100 0.80852 8.28142 31.24980 3.49564 10.01570 -1.14888 -11.40380 -26.18790 8.04584 148.51500 65.20690 -172.75000 -23.72480 12.65440 4.14942 -10.17520 9.06137 27.33760 -30.59300 -31.32140 -16.59650 -143.56500 77.47530 108.38300 -9.29713 -19.25910 -1.21846 0.01671 -0.54093 1.18730 
28.02530 35.95190 -23.33800 -146.20500 -68.91210 158.61200 0.18127 17.21900 0.20955 0.25848 34.65030 0.02162 -21.71710 12.50050 0.10576 -0.00000 -0.00000 0.00000 -59.64710 -36.69890 -66.71640 -23.64320 19.05710 -69.68830 24.13640 5.21656 -18.17420 -22.22570 2.01177 -14.09740 60.03490 -11.60020 98.25040 0.76395 10.20010 30.34260 4.37730 10.03680 -1.21791 -10.72870 -25.34260 7.48099 147.51900 66.93030 -169.98599 -24.60010 10.39650 3.83662 -11.14560 11.73790 26.66570 -29.51300 -32.97130 -15.46580 -147.41200 76.04900 112.43600 -7.35691 -20.03140 -1.07305 -0.36816 2.05331 2.21017 
28.30250 34.48070 -23.48470 -145.01900 -69.01590 159.92700 -0.43625 17.62840 0.44296 -0.17660 35.47200 0.19981 -21.88040 11.33220 0.31170 -0.00000 -0.00000 0.00000 -56.32580 -32.79900 -64.77710 -20.38310 14.66770 -68.68010 23.00380 5.53181 -17.77400 -21.70860 1.93514 -13.96510 58.02050 -13.42010 96.04710 0.63157 12.02120 28.36600 5.31269 10.06170 -1.22051 -10.12210 -24.87230 6.73952 146.58701 68.46000 -166.27100 -26.53740 8.32978 3.68554 -12.01650 14.45560 25.79230 -28.59750 -34.60190 -14.57250 -151.33900 74.54340 116.84000 -3.48237 -21.87370 -0.71365 -1.20098 7.72436 3.67146 
28.56630 32.89280 -23.62360 -143.88100 -69.35800 161.72000 -0.91369 18.00860 0.50050 -0.42142 36.22410 0.06148 -21.83560 10.10760 0.42934 -0.00000 -0.00000 0.00000 -53.38830 -28.90610 -63.53610 -17.32140 10.62570 -67.25070 21.59650 5.83391 -17.67700 -21.00460 1.82850 -13.75390 55.83420 -15.16170 94.00610 0.59507 13.73080 24.86440 6.10361 10.09210 -1.06323 -9.63658 -24.76220 5.75412 145.86900 69.77620 -161.83400 -29.01790 6.75631 3.65701 -12.55330 16.85340 24.54060 -28.01470 -36.09950 -14.15920 -155.01900 73.09030 121.15800 1.57537 -24.52970 -0.04589 -2.31782 15.60780 4.73349 
28.81360 31.25980 -23.73470 -142.76300 -69.90060 163.92900 -1.29006 18.38410 0.40459 -0.51925 36.95420 -0.36045 -21.60830 8.97130 0.44497 -0.00000 -0.00000 0.00000 -50.75600 -25.22900 -62.79490 -14.64950 7.00494 -65.46450 20.21720 6.07998 -17.84140 -20.17680 1.70198 -13.47050 53.52270 -16.74770 92.05500 0.67495 15.48740 19.92540 6.66815 10.12000 -0.87353 -9.32055 -24.89720 4.63408 145.40800 70.87740 -157.05701 -31.36810 5.73922 3.69571 -12.61080 18.69950 22.79850 -27.71710 -37.41880 -14.24600 -158.02600 71.83810 124.72600 6.72191 -27.37570 0.90118 -3.23155 23.60540 4.75956 
29.05440 29.67060 -23.79970 -141.55901 -70.60070 166.43201 -1.58525 18.76730 0.21939 -0.49889 37.68840 -0.94940 -21.29720 8.02752 0.42262 -0.00000 -0.00000 0.00000 -48.39240 -21.79340 -62.37210 -12.47280 3.65509 -63.38860 19.03020 6.26578 -18.15290 -19.45020 1.58602 -13.15510 51.07990 -18.03650 89.93090 0.71817 17.43650 14.31620 7.21438 10.12140 -1.09178 -9.19167 -25.16170 3.58351 145.14500 71.77320 -152.37900 -33.11340 5.14848 3.74523 -12.20070 19.90460 20.64770 -27.47260 -38.62580 -14.63760 -160.14101 70.90030 127.06600 10.99460 -29.81860 1.91229 -3.60446 29.81000 3.91824 
29.31150 28.20790 -23.80390 -140.12199 -71.43070 169.13000 -1.78259 19.15500 0.01007 -0.37688 38.42040 -1.56566 -21.04210 7.33237 0.44694 -0.00000 -0.00000 0.00000 -46.33770 -18.56000 -62.15490 -10.78480 0.35869 -61.09440 17.96920 6.42982 -18.47600 -19.02760 1.51009 -12.88780 48.57820 -18.95670 87.50960 0.71887 19.51750 9.03555 8.14683 10.07500 -2.03904 -9.22392 -25.49030 2.80221 144.97400 72.48160 -148.24300 -34.05870 4.76634 3.74629 -11.50710 20.50110 18.42820 -27.00650 -39.86100 -15.03650 -161.39799 70.31440 128.07800 13.87880 -31.60350 2.73155 -3.68121 33.71480 3.11872 
29.60240 26.93190 -23.74080 -138.29700 -72.37710 172.01500 -1.87359 19.53700 -0.17727 -0.20739 39.13070 -2.08923 -20.91190 6.87676 0.56458 -0.00000 -0.00000 0.00000 -44.64850 -15.54860 -62.07650 -9.45382 -2.92653 -58.70310 16.88550 6.62018 -18.69030 -18.84780 1.47394 -12.73760 46.34070 -19.71120 85.00180 0.89670 21.31250 4.85619 9.65579 9.98333 -3.39562 -9.35682 -25.86310 2.38876 144.79401 73.04360 -145.04300 -34.27230 4.36655 3.65196 -10.79910 20.61040 16.60950 -26.13570 -41.24080 -15.19590 -161.96001 70.04620 128.04601 15.41850 -32.80770 3.24908 -3.92148 35.94860 3.14685 
29.92560 25.88130 -23.62110 -135.95100 -73.43140 175.19099 -1.87938 19.90490 -0.32589 -0.07166 39.80480 -2.46332 -20.85620 6.60071 0.78445 -0.00000 -0.00000 0.00000 -43.31770 -12.84680 -62.06020 -8.32173 -6.03439 -56.38150 15.72380 6.85374 -18.73240 -18.62980 1.45163 -12.72820 44.80940 -20.72270 82.78310 1.27523 22.28930 2.32742 11.42210 9.88490 -4.46983 -9.52531 -26.26500 2.30814 144.52200 73.53710 -143.03101 -33.96990 3.80796 3.45200 -10.23250 20.28840 15.48490 -24.81910 -42.78750 -15.02690 -161.96800 70.02940 127.43700 16.01010 -33.61080 3.50988 -4.42048 37.29210 3.92786 
30.26770 25.08390 -23.46680 -132.97800 -74.56670 178.81200 -1.83271 20.25760 -0.44487 -0.02807 40.44160 -2.70472 -20.79240 6.43909 1.10797 -0.00000 -0.00000 0.00000 -42.24170 -10.52950 -62.00890 -7.28705 -8.76750 -54.26580 14.55620 7.10663 -18.63110 -18.14270 1.41918 -12.85540 44.25230 -22.32900 81.15470 1.61341 22.35690 1.81058 12.92390 9.82676 -4.94625 -9.68741 -26.65370 2.45079 144.07001 74.05250 -142.15500 -33.48700 3.03159 3.17300 -9.80843 19.60700 14.99330 -23.14440 -44.43640 -14.60260 -161.47900 70.20770 126.63500 15.91190 -34.09140 3.55835 -4.86197 38.06920 4.68625 
30.61380 24.55900 -23.29500 -129.24001 -75.73190 -176.93401 -1.75964 20.60060 -0.54442 -0.09028 41.05090 -2.85315 -20.70220 6.36637 1.52140 -0.00000 -0.00000 0.00000 -41.25330 -8.59651 -61.85840 -6.26270 -11.01940 -52.37270 13.50830 7.33776 -18.48260 -17.36070 1.37062 -13.11200 44.63120 -24.55730 80.20800 1.76059 21.92610 3.38345 13.88130 9.81164 -5.02462 -9.80265 -26.97540 2.70924 143.37700 74.64730 -142.07401 -33.27670 1.97850 2.84628 -9.51867 18.85490 14.89050 -21.26040 -46.09290 -14.07830 -160.52901 70.55120 125.82900 15.04220 -34.20800 3.35880 -4.81453 38.15010 4.56540 
